<?xml version="1.0" standalone="no"?>
<!DOCTYPE svg PUBLIC "-//W3C//DTD SVG 20010904//EN"
 "http://www.w3.org/TR/2001/REC-SVG-20010904/DTD/svg10.dtd">
<svg version="1.0" xmlns="http://www.w3.org/2000/svg"
 width="949.000000pt" height="949.000000pt" viewBox="0 0 949.000000 949.000000"
 preserveAspectRatio="xMidYMid meet">
<metadata>
Created by potrace 1.14, written by Peter Selinger 2001-2017
</metadata>
<g transform="translate(0.000000,949.000000) scale(0.100000,-0.100000)"
fill="#000000" stroke="none">
<path d="M0 4745 l0 -4745 4745 0 4745 0 0 4745 0 4745 -4745 0 -4745 0 0
-4745z m5069 3450 c100 -50 141 -148 141 -334 0 -106 2 -120 20 -136 23 -20
22 -48 -6 -171 -10 -45 -14 -157 -14 -454 l0 -394 -59 -60 c-56 -56 -63 -60
-142 -77 -86 -19 -357 -27 -442 -12 -63 10 -69 29 -75 223 -5 194 4 246 50
285 20 17 24 25 14 25 -9 0 -27 21 -40 48 -23 46 -24 56 -31 367 -8 350 5 620
32 663 8 13 28 32 46 43 30 18 46 19 245 14 200 -5 217 -7 261 -30z m-2425
-16 c54 -6 138 -9 187 -6 l88 6 20 -35 c16 -27 27 -34 51 -34 30 0 30 -1 30
-52 0 -79 -24 -91 -221 -113 -85 -9 -157 -19 -161 -22 -5 -2 -8 -84 -8 -182 0
-133 4 -187 15 -213 l14 -35 138 -7 c134 -6 139 -7 161 -34 56 -65 56 -67 37
-137 -24 -91 -48 -104 -219 -116 -83 -6 -133 -14 -138 -22 -11 -18 -9 -84 6
-153 8 -39 11 -100 8 -169 l-5 -108 32 6 c18 4 94 10 169 13 113 5 144 3 174
-10 53 -23 88 -73 88 -125 0 -36 -6 -49 -42 -86 l-43 -44 -290 -7 -290 -6 -37
49 -37 49 -10 354 c-8 258 -8 423 0 605 6 138 9 291 5 342 -5 92 3 137 44 224
14 30 99 90 120 84 8 -2 59 -9 114 -16z m3240 0 c54 -6 138 -9 187 -6 l88 6
20 -35 c16 -27 27 -34 51 -34 30 0 30 -1 30 -52 0 -79 -24 -91 -221 -113 -85
-9 -157 -19 -161 -22 -5 -2 -8 -84 -8 -182 0 -133 4 -187 15 -213 l14 -35 138
-7 c134 -6 139 -7 161 -34 56 -65 56 -67 37 -137 -26 -97 -45 -106 -274 -119
-46 -3 -77 -10 -82 -18 -12 -19 -10 -84 5 -154 8 -39 11 -100 8 -169 l-5 -108
32 6 c18 4 94 10 169 13 113 5 144 3 174 -10 53 -23 88 -73 88 -125 0 -36 -6
-49 -42 -86 l-43 -44 -290 -7 -290 -6 -37 49 -37 49 -10 354 c-8 258 -8 423 0
605 6 138 9 291 5 342 -5 92 3 137 44 224 14 30 99 90 120 84 8 -2 59 -9 114
-16z m-4182 -3 c109 -21 168 -58 238 -151 57 -74 60 -80 60 -134 0 -55 -2 -58
-49 -105 l-49 -49 -67 18 c-58 16 -69 23 -89 57 -28 48 -81 88 -115 88 -32 0
-41 -6 -73 -50 -25 -35 -25 -37 -20 -178 3 -89 0 -171 -7 -215 -10 -59 -10
-94 3 -191 9 -78 11 -127 5 -143 -5 -13 -9 -86 -9 -162 0 -138 0 -138 30 -179
17 -23 35 -42 40 -42 22 0 86 40 119 73 l34 36 -5 140 c-4 139 -5 142 -33 171
-19 19 -43 33 -68 37 -35 5 -41 11 -58 51 -16 36 -18 56 -12 100 8 52 11 57
53 83 42 26 53 27 160 28 l115 0 53 -49 54 -50 -4 -283 -4 -282 -35 -98 c-34
-97 -35 -98 -109 -157 l-75 -60 -128 0 -128 0 -78 60 c-109 82 -156 140 -177
216 -15 55 -15 84 -5 264 9 173 8 223 -6 349 -20 176 -20 254 0 429 14 128 16
135 59 205 36 60 57 81 121 124 97 66 135 73 259 49z m6571 -18 c49 -17 65
-30 102 -79 56 -71 78 -148 52 -177 -11 -11 -17 -35 -17 -62 0 -55 -29 -90
-74 -90 -30 0 -51 20 -143 137 -10 12 -20 13 -67 3 l-55 -11 -25 -75 c-24 -71
-24 -79 -14 -167 10 -79 15 -95 37 -115 38 -32 71 -48 116 -56 22 -4 52 -9 67
-12 17 -3 51 -32 92 -78 l64 -72 12 -159 c7 -96 17 -166 25 -179 9 -13 15 -61
17 -133 l3 -113 -45 -74 c-40 -69 -48 -76 -99 -96 -64 -24 -178 -50 -222 -50
-79 0 -239 99 -304 189 -34 45 -35 47 -35 153 l0 106 40 32 c37 30 43 31 96
24 52 -6 58 -10 90 -53 24 -33 34 -57 34 -84 0 -33 5 -41 44 -65 115 -73 191
24 180 229 -4 79 -34 156 -66 168 -13 4 -65 16 -117 25 -108 20 -178 60 -243
138 -61 75 -78 150 -78 349 l0 169 34 68 c49 95 141 183 226 215 78 29 183 27
273 -5z m-4145 -65 c12 -38 30 -129 39 -203 19 -142 19 -148 11 -830 -5 -404
-6 -416 -28 -460 -28 -58 -76 -90 -133 -90 -36 0 -50 6 -90 43 -43 38 -50 50
-77 144 -16 56 -38 116 -49 135 -10 18 -22 51 -26 73 -4 22 -11 45 -16 52 -6
6 -21 51 -34 100 -13 49 -34 113 -48 143 l-24 55 -8 -115 c-5 -63 -7 -206 -6
-318 2 -203 2 -203 -24 -248 -29 -50 -68 -74 -118 -74 -29 0 -42 9 -87 60
l-52 61 6 67 c3 37 8 216 11 397 6 361 22 861 32 968 8 86 27 100 116 85 l58
-10 58 -87 c38 -56 60 -101 65 -129 3 -24 17 -60 31 -80 27 -42 135 -311 135
-338 0 -9 2 -15 6 -12 10 11 34 463 28 529 -6 66 -6 67 31 108 37 40 39 41
104 41 l67 0 22 -67z m2954 56 c120 -12 193 -37 236 -82 25 -26 35 -51 53
-127 18 -79 23 -136 27 -337 l4 -241 -52 -76 -53 -75 26 -108 c14 -59 40 -173
57 -253 19 -87 40 -157 52 -174 20 -27 20 -30 4 -90 -16 -59 -19 -62 -79 -96
-55 -32 -66 -35 -102 -27 -64 14 -97 73 -125 222 -12 66 -30 147 -41 180 -10
33 -26 105 -34 159 -9 54 -23 112 -31 128 -19 37 -57 56 -78 39 -13 -11 -14
-56 -9 -319 l5 -307 -31 -42 -31 -43 -69 0 -69 0 -31 49 -32 49 3 723 c3 839
-4 777 101 821 97 42 131 45 299 27z m1088 -2429 c224 -9 239 -11 325 -40 72
-25 308 -69 372 -70 7 0 39 -36 73 -79 l60 -80 0 -124 0 -123 -141 -80 c-78
-43 -146 -78 -153 -76 -6 2 -63 26 -126 53 l-116 50 -119 -54 c-117 -53 -124
-55 -275 -71 -236 -25 -213 -16 -240 -100 l-22 -72 20 -160 c14 -104 23 -252
28 -427 l7 -268 28 -15 c24 -12 63 -13 229 -8 l200 7 114 -42 115 -43 67 -116
68 -116 -18 -125 c-18 -131 -25 -147 -94 -228 l-27 -33 -339 -24 -339 -24 -31
-31 -31 -31 -5 -691 -5 -690 -105 -114 -105 -115 -161 0 -162 0 -97 130 -97
129 27 518 c27 514 27 523 15 1068 l-12 550 32 125 32 125 -6 370 c-6 367 -6
372 24 645 17 151 32 278 33 282 1 4 35 32 76 63 l75 55 90 0 91 0 84 55 84
55 111 0 c61 0 217 -5 346 -10z m-2501 -100 l594 -30 81 -50 82 -50 24 -73
c13 -39 25 -106 28 -148 l4 -76 -131 -115 -132 -115 -67 -7 c-37 -3 -106 -6
-154 -6 -85 0 -88 -1 -101 -27 -12 -24 -9 -207 21 -1243 31 -1115 33 -1246 23
-1589 l-11 -374 -40 -61 c-22 -34 -66 -89 -97 -123 l-58 -62 -125 19 c-69 11
-136 22 -148 25 -19 5 -38 36 -94 152 l-71 147 -29 1105 c-23 874 -28 1194
-23 1527 l7 422 -46 34 c-44 34 -49 36 -185 48 l-139 13 -121 104 c-86 74
-121 111 -121 126 1 44 39 280 47 288 5 5 62 46 128 93 l120 84 70 -4 c39 -3
337 -18 664 -34z m-3226 -146 c40 -37 80 -75 89 -83 11 -10 34 -87 63 -207 45
-192 54 -264 80 -649 3 -49 10 -121 15 -160 11 -79 47 -230 49 -202 1 11 60
81 133 158 l131 139 161 0 161 -1 108 -130 108 -130 14 -122 c8 -67 15 -129
15 -137 1 -13 2 -13 9 0 9 15 16 65 26 180 3 36 17 184 30 330 14 146 28 290
30 320 3 30 8 80 11 110 3 30 20 127 38 215 19 88 33 175 32 194 -1 34 2 37
114 107 l115 73 120 -14 c66 -8 123 -15 126 -15 3 0 48 -62 98 -139 82 -123
92 -143 87 -172 -7 -45 -14 -108 -21 -199 -4 -41 -20 -151 -37 -245 -28 -158
-30 -181 -24 -325 l6 -155 -35 -52 -35 -52 0 -179 c0 -176 0 -179 -34 -278
-29 -86 -34 -117 -40 -239 -18 -391 -16 -374 -52 -446 l-32 -65 -7 -315 c-7
-301 -9 -328 -56 -661 l-48 -348 -49 -71 -48 -72 -148 -47 -148 -47 -99 21
-98 21 -72 85 c-149 177 -136 153 -150 273 -6 59 -13 106 -15 104 -2 -1 -15
-57 -29 -122 -14 -66 -36 -151 -48 -189 -19 -61 -29 -75 -82 -120 l-61 -52
-210 14 c-115 7 -218 15 -229 17 -14 3 -48 55 -112 174 l-93 169 0 161 c0 128
-14 297 -70 833 -107 1031 -105 1018 -150 1204 -30 125 -46 222 -62 374 l-20
204 -40 71 -40 70 -9 185 c-4 102 -14 212 -23 245 -8 33 -17 99 -20 147 l-6
86 116 109 c131 122 123 119 292 116 l104 -1 71 -68z m-1284 -3094 c99 -49
139 -77 235 -161 l116 -102 0 -81 c0 -45 3 -124 6 -176 l6 -95 -152 -135 -152
-135 -102 -6 c-55 -4 -148 -7 -206 -8 l-105 -1 -97 98 -96 97 -44 140 -44 140
43 114 c23 63 48 120 55 126 7 7 59 51 115 99 96 82 109 90 195 116 51 16 96
29 101 29 4 1 61 -26 126 -59z"/>
<path d="M4737 7983 c-11 -10 -8 -71 3 -91 16 -27 28 -647 13 -708 -17 -74
-16 -297 1 -339 l15 -35 79 0 c127 0 117 -44 117 514 0 432 1 474 18 499 39
60 -1 137 -74 137 -18 0 -61 7 -94 15 -71 17 -70 17 -78 8z"/>
<path d="M6975 7888 c-2 -7 -6 -60 -9 -118 -3 -58 -9 -152 -12 -209 l-7 -104
63 6 c35 4 73 7 84 7 14 0 29 12 40 31 17 28 18 46 11 192 -9 202 -12 207
-101 207 -43 0 -66 -4 -69 -12z"/>
</g>
</svg>
